<svg width="14" height="17" viewBox="0 0 14 17" fill="none" xmlns="http://www.w3.org/2000/svg">
<path d="M5.49994 14.7498H8.49994C8.49994 15.5749 7.82494 16.2499 6.99994 16.2499C6.17494 16.2499 5.49994 15.5749 5.49994 14.7498ZM13.7499 13.2498V13.9998H0.249939V13.2498L1.74994 11.7498V7.24985C1.74994 4.92485 3.24994 2.89985 5.49994 2.22485V1.99985C5.49994 1.17485 6.17494 0.499847 6.99994 0.499847C7.82494 0.499847 8.49994 1.17485 8.49994 1.99985V2.22485C10.7499 2.89985 12.2499 4.92485 12.2499 7.24985V11.7498L13.7499 13.2498ZM10.7499 7.24985C10.7499 5.14985 9.09994 3.49985 6.99994 3.49985C4.89994 3.49985 3.24994 5.14985 3.24994 7.24985V12.4998H10.7499V7.24985Z" fill="white"/>
</svg>
