<svg id="Layer_1" data-name="Layer 1"
  xmlns="http://www.w3.org/2000/svg" viewBox="0 0 865.57 1024">
  <title>ResoBin-logo</title>
  <path d="M385.59,494.6c.75,35.48.11,71,.26,106.49.08,17.7-5.74,39.85,2.68,51.91,9.32,13.35,32.42,1.89,49.52,2.78,113.25,5.9,190.56,106.78,170.05,223C598.38,913,580.75,943,558.57,970.59c-101.76,98.21-265,54-305.57-75.71-18-57.64-9.45-112.2,25.67-161.32,9.5-13.29,13.23-26,13.18-41.85-.41-128.48.26-257-.74-385.45-.16-20.57,6-26.47,25.57-24.74,21.75,1.91,50.69-6.89,63.78,4.1,15.38,12.92,4.48,42.81,5.1,65.28C386.51,386.12,385.23,477.89,385.59,494.6Zm43.55,260.47c-45.75-.79-83.92,36.94-84.39,83.44-.48,46.9,35.53,84.67,81.94,85.91,46.26,1.23,86.4-38.09,86.44-84.69C513.17,794.26,475.07,755.85,429.14,755.07Z" transform="translate(0.09 0)" style="fill:#707aff"/>
  <path d="M775.87,953a59.4,59.4,0,0,1-51.54-31c-.85-1.56-1.67-3.08-2.45-4.53-58.9-109.63-181-355.12-184.1-357.12-.55-.35,6.71.35,6.17,0-5.14-3.32-.07-.39-6.17,0-8,.5,27,1.46-.3.33,80.49,2.14,248.27-88.95,237.16-205.12-11.85-123.88-65.38-117.2-152.51-123.89-175.82-.55-351.65-1.3-527.45.79-33.37.4-53.31-8.65-67.16-38.17-7.87-17.61-15-35.94-27.61-55.85,10.2-.51,11.17.67,18.26.67,199.49-.06,399,.29,598.46-.18,104.58-.24,209.82,35.28,236.82,133.59,49.49,215-62.77,269.32-172.57,343.34l175.18,338L780.69,953Z" transform="translate(0.09 0)" style="fill:#D6C9F8"/>
  <path d="M276.21,97.66c12.62-21.39,23.64-39.12,33.65-57.4,5.37-9.82,13.85-8,22-8,41.38-.12,82.76-.35,124.13.12,11.81.13,20.27-1.32,18.27-16C472.65,4.47,477.51-.13,489.81,0q70.92.77,141.86,0c11.79-.12,17.65,3.42,16.13,15.76C646.06,29.9,653.71,32.52,666,32.34c38-.53,76,.9,114-.65,18.58-.76,29.85,4.37,37,21.89,5.9,14.53,14.47,28,23,44.08Z" transform="translate(0.09 0)" style="fill:#707aff"/>
  <path d="M86.53,281.84c46.83,0,88.86.25,130.87-.17,10.61-.11,16,3.07,15.09,14.26-.33,4.19,0,8.44,0,12.66.24,68.65.25,68.35-68.94,67.12-12.28-.22-20.12-3.45-26.63-14.4C121.56,335.5,104.83,310.51,86.53,281.84Z" transform="translate(0.09 0)" style="fill:#707aff"/>
</svg>
