<?xml version="1.0" standalone="no"?>
<!DOCTYPE svg PUBLIC "-//W3C//DTD SVG 20010904//EN" "http://www.w3.org/TR/2001/REC-SVG-20010904/DTD/svg10.dtd">
<svg version="1.0"
  xmlns="http://www.w3.org/2000/svg" width="4267.000000pt" height="4267.000000pt" viewBox="0 0 4267.000000 4267.000000" preserveAspectRatio="xMidYMid meet">
  <metadata>
Created by potrace 1.14, written by Peter Selinger 2001-2017
  </metadata>
  <g transform="translate(0.000000,4267.000000) scale(0.100000,-0.100000)" fill="#000000" stroke="none">
    <path d="M20190 42663 c-65 -11 -176 -46 -221 -69 -95 -48 -163 -131 -203
-249 -19 -54 -24 -213 -11 -325 11 -94 12 -294 2 -340 -4 -19 -9 -40 -10 -45
-7 -31 -61 -126 -85 -150 -53 -53 -151 -108 -215 -121 -10 -2 -28 -6 -39 -10
-11 -3 -32 -7 -46 -9 -15 -2 -54 -7 -87 -11 -33 -4 -289 -6 -570 -4 -881 6
-5247 3 -5318 -4 -111 -11 -210 -49 -302 -118 -45 -33 -125 -118 -125 -132 0
-3 -7 -14 -16 -25 -9 -11 -35 -52 -56 -93 -22 -40 -48 -86 -57 -103 -10 -16
-32 -55 -48 -85 -38 -69 -65 -117 -114 -202 -22 -36 -39 -71 -39 -76 0 -6 -4
-12 -8 -14 -5 -1 -22 -28 -39 -58 -38 -70 -328 -564 -358 -610 -53 -83 -305
-511 -305 -519 0 -5 -4 -11 -9 -13 -4 -1 -32 -43 -60 -93 -29 -49 -56 -97 -61
-105 -5 -8 -32 -53 -60 -100 -28 -47 -55 -92 -60 -100 -6 -8 -16 -26 -23 -40
-6 -14 -18 -32 -25 -40 -7 -8 -12 -19 -11 -24 0 -5 -3 -12 -8 -15 -10 -7 -93
-146 -93 -155 0 -3 5286 -6 11746 -6 l11745 0 -59 113 c-33 61 -71 132 -84
157 -13 25 -25 47 -28 50 -3 3 -18 30 -34 60 -16 30 -33 60 -38 66 -5 7 -19
31 -31 55 -13 24 -68 125 -123 224 -56 99 -115 206 -133 238 -17 31 -44 81
-60 110 -16 28 -50 95 -77 147 -27 52 -52 97 -56 98 -5 2 -8 8 -8 13 0 5 -32
75 -70 155 -38 80 -70 147 -70 148 0 2 -14 34 -32 72 -17 38 -33 74 -34 79 -1
6 -11 31 -22 55 -11 25 -29 68 -41 95 -23 54 -22 51 -71 140 -100 182 -236
340 -385 447 -119 85 -313 167 -460 192 -16 3 -41 8 -55 11 -124 27 -357 34
-690 22 -480 -19 -917 -22 -2758 -20 -1827 1 -2106 4 -2175 19 -12 3 -32 7
-45 10 -75 15 -189 72 -241 118 -59 54 -110 156 -127 256 -10 59 -9 196 1 290
44 392 -78 577 -420 638 -22 4 -355 6 -740 5 -2544 -5 -3578 -6 -4535 -1 -597
3 -1096 4 -1110 1z" />
    <path d="M0 36900 c0 -6 21 -44 46 -83 26 -40 55 -85 64 -102 9 -16 51 -88 92
-160 42 -71 99 -173 127 -225 51 -93 313 -622 353 -710 39 -87 47 -106 98
-214 27 -59 50 -110 50 -113 0 -2 11 -29 25 -59 14 -30 25 -56 25 -59 0 -2 16
-38 35 -79 19 -42 35 -78 35 -81 0 -2 13 -32 29 -67 68 -150 111 -247 111
-251 0 -6 87 -197 99 -217 5 -8 28 -52 52 -98 23 -46 52 -99 65 -118 13 -19
24 -37 24 -41 0 -3 38 -63 85 -133 274 -414 613 -701 1035 -879 50 -21 242
-87 280 -97 8 -2 44 -11 80 -19 76 -19 94 -23 135 -30 17 -3 37 -8 45 -10 8
-2 31 -6 50 -9 19 -3 46 -8 60 -11 14 -2 45 -7 70 -9 25 -3 68 -8 95 -11 239
-31 458 -34 1555 -21 3112 34 4863 41 10775 41 5180 -1 10226 -10 10360 -20
33 -3 92 -7 130 -10 39 -3 99 -7 135 -10 36 -3 101 -7 145 -10 44 -3 109 -7
145 -10 36 -3 103 -7 150 -10 47 -3 117 -7 155 -10 39 -3 102 -8 140 -10 81
-5 186 -12 300 -21 44 -3 103 -7 130 -9 28 -2 84 -6 125 -10 41 -3 100 -8 130
-11 30 -2 82 -6 115 -9 33 -3 80 -7 105 -10 25 -3 74 -7 110 -10 35 -3 76 -7
90 -9 14 -3 54 -7 90 -11 36 -3 81 -8 100 -10 19 -3 55 -8 80 -11 25 -3 56 -7
70 -9 14 -2 50 -7 80 -10 64 -8 84 -11 125 -19 17 -3 48 -8 70 -10 22 -3 50
-8 61 -10 12 -2 37 -7 55 -10 100 -17 281 -53 357 -71 12 -3 32 -7 43 -10 12
-2 58 -14 103 -26 45 -11 88 -22 96 -24 8 -2 15 -4 15 -5 0 -1 7 -3 15 -5 8
-1 53 -15 100 -30 47 -15 90 -28 97 -29 7 -1 16 -5 19 -9 4 -4 13 -7 21 -7 7
0 59 -18 116 -41 56 -22 107 -42 112 -43 34 -9 298 -136 368 -178 29 -17 66
-38 82 -47 17 -9 75 -46 130 -83 397 -266 727 -631 987 -1095 61 -110 188
-363 188 -376 0 -3 11 -29 24 -58 13 -30 24 -57 25 -62 0 -4 7 -20 15 -35 8
-15 23 -52 34 -82 11 -30 36 -100 56 -155 20 -55 39 -107 41 -115 2 -8 15 -51
29 -95 15 -44 33 -107 42 -140 8 -33 19 -71 25 -85 5 -14 11 -35 14 -47 3 -13
7 -33 10 -44 2 -12 11 -45 19 -73 8 -28 17 -62 20 -76 3 -14 7 -35 10 -47 4
-13 8 -32 11 -44 2 -11 6 -28 9 -37 3 -9 8 -33 11 -52 3 -19 8 -43 11 -52 5
-16 9 -35 19 -88 3 -14 7 -36 10 -50 3 -14 7 -36 10 -50 5 -25 10 -51 20 -100
2 -14 7 -36 9 -50 3 -14 7 -34 9 -45 3 -11 8 -40 11 -65 3 -25 8 -56 11 -70 3
-14 8 -45 11 -70 3 -25 8 -54 10 -65 2 -11 6 -38 9 -60 3 -22 7 -51 10 -65 3
-14 7 -45 10 -70 3 -25 8 -61 11 -80 7 -41 10 -65 19 -145 3 -33 8 -76 11 -95
6 -48 13 -105 19 -165 3 -27 8 -75 11 -105 38 -353 38 -718 -1 -1080 -6 -65
-9 -86 -19 -150 -3 -19 -8 -51 -10 -70 -3 -19 -8 -46 -11 -60 -2 -13 -7 -40
-10 -60 -7 -50 -13 -78 -20 -100 -3 -10 -8 -31 -10 -46 -2 -16 -7 -39 -10 -51
-3 -13 -7 -31 -9 -40 -3 -10 -12 -47 -21 -83 -8 -36 -17 -72 -19 -80 -2 -8 -9
-35 -16 -60 -7 -25 -12 -47 -13 -50 0 -3 -6 -20 -14 -37 -7 -18 -10 -33 -7
-33 4 0 2 -6 -4 -12 -6 -7 -11 -17 -11 -23 -2 -19 -44 -145 -87 -260 -4 -11
-9 -29 -11 -39 -2 -11 -7 -24 -11 -30 -7 -9 -43 -98 -48 -116 -1 -8 -21 -55
-44 -105 -11 -25 -29 -66 -41 -92 -12 -27 -32 -70 -46 -98 -14 -27 -24 -51
-24 -53 1 -3 -60 -126 -111 -222 -458 -860 -1091 -1638 -1983 -2436 -44 -39
-129 -113 -190 -164 -60 -51 -121 -102 -135 -114 -14 -11 -79 -64 -145 -116
-66 -52 -122 -97 -125 -100 -6 -7 -255 -192 -340 -253 -100 -73 -428 -300
-495 -343 -33 -22 -61 -42 -63 -46 -2 -5 -8 -8 -13 -8 -5 0 -53 -28 -107 -63
-233 -151 -711 -433 -857 -506 -16 -8 -32 -17 -35 -20 -6 -7 -46 -27 -392
-202 -131 -66 -241 -120 -245 -121 -5 -1 -37 -16 -73 -33 -36 -18 -87 -43
-115 -55 -27 -13 -79 -36 -115 -52 -249 -114 -767 -322 -980 -394 -25 -8 -52
-18 -60 -21 -8 -4 -17 -7 -20 -8 -3 -1 -12 -4 -20 -8 -28 -10 -325 -109 -340
-112 -8 -2 -53 -16 -100 -30 -47 -14 -92 -28 -100 -30 -8 -2 -63 -17 -121 -34
-58 -16 -168 -46 -245 -66 -137 -35 -157 -40 -211 -50 -16 -3 -36 -8 -45 -11
-10 -3 -30 -7 -45 -10 -16 -3 -56 -11 -91 -19 -34 -8 -74 -17 -90 -20 -15 -3
-37 -7 -48 -9 -12 -2 -37 -7 -55 -10 -19 -3 -45 -8 -59 -11 -14 -3 -41 -7 -60
-10 -19 -3 -46 -7 -60 -10 -14 -3 -43 -8 -65 -10 -22 -3 -51 -7 -65 -10 -14
-3 -47 -7 -75 -10 -27 -3 -61 -8 -75 -10 -14 -2 -54 -7 -90 -10 -36 -4 -83 -8
-105 -10 -35 -4 -95 -8 -278 -19 -26 -2 -45 -1 -43 2 8 7 -15 26 -62 52 l-44
25 -16 -22 c-14 -18 -54 -36 -84 -38 -3 0 -9 -3 -12 -6 -3 -3 13 -5 36 -4 23
1 56 -2 72 -6 21 -5 5 -7 -51 -6 -45 1 -79 5 -77 9 3 5 -11 7 -30 6 -40 -3
-50 -18 -13 -18 26 0 60 -31 76 -70 6 -14 21 -41 32 -60 12 -19 33 -57 47 -85
14 -27 28 -52 31 -55 4 -3 23 -39 44 -80 20 -41 65 -127 98 -190 33 -63 99
-189 146 -280 47 -91 111 -214 143 -275 109 -209 524 -1020 890 -1740 84 -165
217 -426 295 -580 295 -580 448 -881 640 -1260 163 -320 375 -738 422 -830 5
-11 15 -29 20 -40 31 -60 512 -1008 791 -1555 123 -243 276 -543 394 -774 6
-11 15 -29 19 -38 16 -31 598 -1172 844 -1653 65 -126 154 -300 198 -385 300
-586 484 -945 707 -1375 37 -71 111 -215 165 -320 98 -191 189 -367 295 -570
32 -60 92 -177 135 -260 43 -82 101 -195 130 -250 48 -92 170 -325 227 -435
12 -25 25 -47 28 -50 3 -3 29 -52 58 -110 29 -58 76 -150 105 -205 73 -138
179 -339 213 -405 15 -30 30 -57 33 -60 4 -3 23 -39 43 -80 21 -41 62 -120 91
-175 29 -55 75 -143 102 -195 28 -52 52 -97 55 -100 3 -3 14 -23 25 -45 19
-38 151 -284 222 -415 208 -382 370 -573 740 -871 101 -80 448 -269 578 -314
28 -9 59 -21 70 -25 11 -5 31 -12 45 -16 94 -28 224 -63 254 -68 17 -3 42 -8
56 -11 67 -14 96 -18 196 -30 126 -13 154 -14 1744 -30 662 -7 1612 -17 1723
-19 64 -2 117 -1 117 2 0 4 -105 209 -265 517 -72 138 -150 289 -285 550 -46
88 -102 196 -124 240 -22 44 -43 82 -46 85 -3 3 -33 61 -68 130 -34 69 -100
197 -145 285 -46 88 -128 246 -182 350 -54 105 -124 240 -155 300 -32 61 -92
178 -135 260 -43 83 -108 209 -145 280 -76 146 -170 327 -285 550 -43 83 -106
204 -140 270 -34 66 -96 185 -137 265 -42 80 -107 206 -145 280 -39 74 -105
203 -148 285 -43 83 -108 209 -145 280 -37 72 -103 200 -146 285 -44 85 -81
157 -84 160 -3 3 -32 57 -64 120 -32 63 -90 176 -128 250 -71 135 -152 291
-278 535 -37 72 -105 202 -150 290 -46 88 -109 210 -140 270 -31 61 -96 184
-143 275 -47 91 -106 206 -132 255 -26 50 -54 104 -62 120 -8 17 -19 38 -24
48 -6 10 -40 75 -76 145 -36 70 -94 181 -128 247 -113 216 -201 388 -282 545
-44 85 -110 211 -145 280 -36 69 -98 188 -138 265 -119 231 -219 423 -285 550
-122 234 -204 392 -295 570 -51 99 -114 221 -140 270 -26 50 -84 162 -130 250
-45 88 -109 210 -140 270 -32 61 -83 160 -115 220 -31 61 -60 117 -65 125 -4
8 -21 42 -38 75 -16 33 -54 107 -85 165 -134 257 -190 365 -267 515 -45 88
-108 210 -140 270 -31 61 -99 191 -150 290 -51 99 -119 230 -150 290 -32 61
-90 173 -130 250 -40 77 -103 199 -140 270 -37 72 -105 202 -150 290 -144 278
-182 350 -189 360 -4 6 -7 17 -7 27 1 14 477 337 1036 703 74 48 137 92 138
97 2 4 8 8 13 8 7 0 751 492 962 637 34 24 105 72 157 107 331 223 965 680
1235 890 122 95 469 369 475 376 3 3 32 28 65 55 33 28 107 90 165 139 96 81
145 124 325 285 255 228 611 585 850 851 32 36 74 83 94 105 141 156 430 522
570 720 94 132 291 433 291 444 0 6 3 11 8 11 4 0 12 9 17 19 6 11 48 83 93
161 124 209 142 243 271 505 127 256 147 300 206 440 20 50 43 104 50 120 33
75 44 105 38 105 -3 0 1 10 9 23 8 12 17 31 21 42 3 11 20 58 37 105 48 129
135 395 170 522 17 62 35 124 40 138 8 22 33 118 46 173 2 9 6 26 9 37 3 11 7
28 9 38 2 10 11 47 19 83 9 35 21 87 27 114 6 28 13 61 16 75 3 14 7 34 9 45
2 11 10 54 19 95 8 41 18 92 22 114 3 21 8 48 10 60 2 11 7 37 10 56 3 19 7
46 10 60 2 14 7 41 10 60 3 19 7 46 10 60 2 14 7 50 10 80 3 30 7 57 9 60 2 3
6 37 10 75 4 39 9 79 11 90 2 11 6 47 9 80 3 33 8 71 10 85 2 14 7 63 10 110
4 47 8 101 10 120 40 381 49 1119 20 1690 -7 146 -32 493 -40 560 -2 19 -7 64
-10 100 -6 79 -12 135 -19 198 -3 26 -8 67 -11 92 -2 25 -7 65 -10 90 -3 25
-8 63 -10 84 -3 21 -7 55 -9 75 -3 20 -8 56 -11 81 -3 25 -8 56 -10 70 -2 14
-7 49 -10 79 -4 30 -9 63 -11 75 -2 12 -7 39 -10 61 -2 22 -7 52 -9 66 -3 14
-7 43 -10 65 -3 21 -7 48 -9 59 -2 11 -6 38 -10 60 -3 23 -8 52 -11 65 -3 13
-7 40 -10 60 -3 20 -7 47 -10 60 -3 13 -7 40 -10 60 -3 20 -8 47 -10 60 -3 14
-7 37 -10 53 -3 15 -7 39 -10 55 -3 15 -7 38 -10 52 -11 57 -27 136 -30 155
-3 20 -10 56 -20 105 -3 14 -7 36 -10 50 -3 14 -7 36 -10 50 -3 14 -7 36 -10
50 -3 14 -7 36 -10 50 -3 14 -8 38 -11 54 -2 16 -7 32 -9 35 -2 4 -6 26 -10
51 -4 25 -8 47 -10 51 -2 3 -7 21 -10 40 -3 19 -13 63 -21 99 -9 36 -17 74
-20 85 -2 11 -6 31 -9 45 -4 14 -8 36 -11 50 -8 38 -125 412 -141 450 -3 8 -7
17 -7 20 -1 3 -6 19 -13 35 -6 17 -24 64 -38 105 -15 41 -34 90 -41 108 -8 17
-21 49 -30 70 -71 170 -136 312 -213 462 -93 183 -94 185 -100 190 -3 3 -22
35 -41 72 -19 38 -38 68 -42 68 -5 0 -8 7 -8 15 0 8 -13 34 -29 57 -16 24 -57
88 -92 143 -34 55 -66 102 -71 103 -4 2 -8 10 -8 18 0 8 -4 14 -10 14 -5 0
-10 4 -10 10 0 8 -50 84 -83 125 -4 6 -25 35 -47 65 -72 100 -274 352 -341
425 -20 22 -81 90 -137 150 -109 120 -367 369 -502 486 -47 41 -87 76 -90 79
-3 3 -63 52 -135 109 -71 57 -139 111 -150 120 -16 13 -162 118 -330 237 -11
8 -42 28 -70 46 -27 18 -52 35 -55 38 -3 3 -15 11 -27 18 -13 6 -33 18 -45 25
-13 6 -25 15 -28 18 -11 13 -314 191 -465 274 -135 74 -471 242 -595 297 -55
25 -243 108 -265 117 -49 21 -160 66 -165 67 -3 0 -16 5 -30 11 -95 40 -241
95 -365 137 -44 15 -87 30 -95 33 -8 4 -17 7 -20 8 -3 1 -12 5 -20 8 -8 4 -35
13 -60 21 -25 7 -97 30 -160 51 -63 20 -122 38 -130 40 -8 2 -28 8 -45 15 -16
6 -31 11 -32 11 -2 0 -8 1 -15 3 -7 2 -22 7 -33 9 -11 3 -54 15 -95 27 -41 12
-83 23 -93 25 -10 2 -33 9 -52 15 -78 23 -202 56 -245 65 -8 2 -51 12 -95 24
-44 11 -91 22 -105 25 -67 15 -117 26 -137 31 -22 5 -35 8 -93 20 -54 11 -71
15 -92 20 -13 3 -34 7 -48 10 -14 3 -36 7 -50 10 -14 3 -36 7 -50 10 -14 3
-36 7 -50 10 -14 3 -38 8 -55 10 -16 3 -37 8 -45 10 -8 2 -35 7 -60 10 -25 3
-52 8 -60 10 -8 2 -30 7 -47 10 -18 3 -46 7 -63 10 -16 3 -45 7 -62 10 -18 3
-40 8 -48 10 -8 2 -37 6 -65 10 -27 3 -61 7 -75 10 -33 6 -76 13 -130 20 -25
3 -56 8 -70 10 -14 3 -47 7 -75 10 -27 3 -61 8 -75 10 -14 2 -47 6 -75 10 -27
3 -66 8 -85 10 -19 3 -60 7 -90 10 -30 3 -71 8 -91 11 -19 2 -62 7 -95 10 -32
3 -72 7 -89 8 -16 2 -66 7 -110 10 -44 4 -101 9 -126 11 -102 10 -456 34 -594
40 -326 15 -683 18 -1725 17 -3427 -5 -24235 -2 -24309 3 -47 3 -104 9 -126
11 -22 3 -140 8 -262 11 -169 4 -223 2 -223 -7z" />
    <path d="M14737 31004 c-1 -1 -60 -5 -132 -9 -142 -7 -178 -10 -305 -20 -47
-3 -112 -8 -145 -11 -33 -2 -87 -6 -120 -9 -253 -21 -691 -26 -880 -10 -164
14 -381 9 -465 -10 -14 -3 -35 -8 -48 -11 -167 -35 -319 -146 -394 -289 -36
-70 -74 -180 -84 -244 -3 -18 -7 -43 -10 -55 -5 -28 -15 -109 -20 -171 -4 -47
-4 -454 1 -1410 15 -2963 24 -15114 11 -15230 -4 -33 -9 -76 -12 -96 -2 -20
-7 -54 -9 -75 -2 -21 -7 -50 -10 -64 -11 -57 -15 -77 -20 -110 -3 -19 -13 -60
-21 -90 -9 -30 -18 -63 -20 -72 -10 -42 -13 -55 -28 -95 -8 -24 -13 -43 -9
-43 3 0 1 -6 -4 -12 -5 -7 -18 -35 -27 -63 -10 -27 -26 -69 -37 -92 -10 -24
-19 -45 -19 -48 0 -8 -92 -192 -132 -263 -31 -57 -166 -263 -233 -357 -20 -27
-79 -115 -132 -195 -52 -80 -108 -164 -124 -187 -16 -23 -29 -44 -29 -46 0 -3
-22 -41 -48 -84 -46 -73 -98 -163 -179 -308 -87 -156 -323 -646 -337 -700 -2
-5 -11 -28 -21 -50 -120 -269 -316 -887 -369 -1165 -3 -14 -17 -81 -31 -150
-15 -68 -28 -136 -30 -150 -5 -32 -15 -96 -21 -124 -2 -11 -7 -41 -10 -66 -8
-61 -12 -88 -18 -135 -3 -22 -8 -60 -10 -85 -3 -25 -7 -65 -10 -90 -10 -77
-26 -288 -32 -405 -4 -88 -4 -568 0 -655 4 -79 15 -250 20 -305 3 -35 7 -72
21 -205 2 -23 10 -88 21 -170 2 -20 6 -45 8 -56 2 -12 7 -45 11 -74 7 -51 9
-67 20 -120 2 -14 7 -41 10 -60 10 -59 18 -105 30 -160 3 -14 7 -36 10 -50 3
-14 8 -38 12 -55 3 -16 7 -37 9 -45 2 -15 17 -84 27 -125 17 -68 68 -272 72
-285 2 -8 9 -35 15 -60 6 -25 17 -62 25 -83 8 -20 15 -39 14 -42 -1 -10 80
-277 98 -325 3 -8 7 -19 9 -25 21 -68 124 -348 145 -395 7 -14 15 -34 19 -45
4 -11 12 -31 18 -45 6 -14 20 -45 30 -70 148 -347 318 -681 513 -1000 61 -101
259 -405 276 -425 5 -6 34 -44 63 -85 126 -174 314 -409 445 -555 45 -49 94
-105 110 -124 117 -133 433 -435 680 -650 62 -54 274 -221 385 -303 114 -84
348 -248 354 -248 2 0 31 -18 64 -40 33 -22 64 -40 70 -40 6 0 12 -3 14 -8 4
-11 103 -72 116 -72 5 0 12 -4 14 -8 8 -23 568 -318 758 -401 30 -13 78 -34
105 -46 60 -27 90 -37 90 -33 1 2 12 -4 25 -13 20 -13 211 -91 230 -94 3 -1
23 -9 45 -19 21 -9 46 -18 55 -19 8 -2 20 -5 25 -8 8 -5 105 -39 125 -44 3 -1
12 -4 20 -8 14 -5 88 -29 100 -32 3 -1 12 -4 20 -7 25 -10 124 -38 135 -39 6
-1 17 -5 26 -10 9 -4 27 -10 40 -13 13 -3 56 -14 94 -26 39 -11 79 -22 90 -25
27 -5 43 -9 160 -39 55 -14 112 -27 128 -30 15 -2 35 -7 45 -10 9 -3 28 -7 42
-10 14 -2 59 -11 100 -19 70 -15 91 -19 170 -32 17 -3 44 -7 60 -10 17 -3 44
-7 60 -10 65 -11 149 -23 210 -30 14 -2 45 -6 70 -9 69 -9 139 -16 205 -22 33
-2 80 -7 105 -9 302 -31 992 -26 1335 9 33 4 83 9 110 11 46 5 93 11 155 20
14 2 49 7 79 10 30 4 63 9 75 11 12 2 39 6 61 9 22 3 51 7 65 10 14 2 39 7 55
10 17 3 41 7 55 10 14 3 40 8 59 11 18 3 43 8 55 10 11 3 32 7 46 10 14 2 57
11 95 20 39 9 79 18 90 20 19 4 198 49 238 59 9 3 25 7 35 9 9 2 51 14 92 26
41 12 91 26 110 31 19 6 42 13 50 16 8 3 20 7 25 8 70 16 499 171 655 238 14
6 27 11 30 12 16 5 72 30 128 55 35 17 66 30 68 30 11 0 399 194 498 249 60
34 111 61 113 61 9 0 329 196 452 277 212 140 541 378 576 417 6 6 35 30 65
52 142 107 534 459 581 522 13 19 31 41 40 50 19 21 199 254 267 347 28 39 55
75 60 80 12 16 133 184 175 245 22 30 104 154 184 275 80 121 154 232 164 247
11 15 19 32 19 37 0 5 6 16 13 23 12 11 148 237 206 341 12 21 38 68 59 105
20 37 49 90 62 117 14 28 28 52 31 55 14 11 221 438 304 625 48 110 98 224
111 253 13 29 24 57 24 62 0 6 4 18 9 28 15 28 37 82 66 162 15 41 43 118 62
170 41 113 136 401 138 420 1 3 9 32 19 65 10 33 20 68 22 78 2 10 5 26 8 35
3 9 7 34 10 54 9 56 17 108 22 132 2 11 6 45 10 74 3 29 7 63 10 75 5 24 14
93 19 147 2 19 6 58 9 85 35 298 49 572 50 960 0 384 -15 675 -50 950 -2 22
-7 60 -10 85 -5 49 -42 302 -48 336 -3 12 -7 37 -10 55 -3 19 -8 44 -10 55 -2
12 -7 37 -10 55 -3 19 -8 45 -11 59 -3 14 -7 36 -10 50 -3 14 -7 36 -10 50 -3
14 -8 39 -10 55 -3 17 -8 38 -11 47 -4 15 -8 31 -19 83 -5 21 -63 249 -70 275
-2 8 -9 35 -16 60 -6 25 -13 52 -16 60 -3 8 -7 20 -8 25 -2 6 -8 28 -14 50 -6
22 -10 43 -11 48 0 4 -7 21 -15 37 -9 17 -14 30 -11 30 2 0 -9 37 -26 83 -16
45 -30 89 -32 97 -6 25 -111 310 -140 380 -32 77 -37 90 -65 152 -12 26 -21
50 -21 52 0 7 -55 127 -131 286 -73 152 -88 180 -136 270 -17 30 -47 87 -68
125 -21 39 -46 82 -57 97 -10 14 -18 28 -18 31 0 9 -65 112 -72 115 -5 2 -8 9
-8 14 0 13 -61 112 -72 116 -5 2 -8 8 -8 13 0 26 -362 535 -492 690 -20 24
-64 78 -98 119 -55 66 -143 166 -234 264 -280 303 -639 627 -972 876 -158 119
-438 310 -453 310 -6 0 -11 4 -11 8 0 5 -21 21 -47 36 -27 14 -75 43 -108 64
-218 136 -541 304 -858 446 -32 14 -60 26 -62 26 -3 0 -27 9 -53 21 -153 68
-287 118 -542 202 -162 54 -361 114 -437 132 -24 6 -222 55 -248 62 -11 2 -38
9 -60 13 -22 5 -51 12 -65 15 -14 3 -36 8 -50 10 -22 3 -49 9 -145 29 -11 2
-40 7 -65 11 -25 4 -54 9 -65 11 -10 2 -35 6 -55 9 -20 3 -47 8 -60 10 -14 3
-50 8 -80 11 -30 3 -57 7 -60 9 -3 2 -34 6 -70 10 -36 4 -76 9 -90 10 -14 2
-54 6 -90 10 -36 3 -78 8 -95 10 -249 31 -652 26 -840 -12 -16 -3 -43 -7 -60
-9 -16 -1 -43 -5 -60 -8 -16 -3 -47 -8 -69 -11 -21 -4 -48 -9 -60 -11 -11 -2
-37 -7 -56 -10 -19 -2 -46 -7 -60 -9 -14 -3 -42 -8 -64 -11 -21 -3 -48 -8 -60
-10 -11 -2 -41 -7 -66 -10 -25 -3 -56 -7 -70 -9 -97 -18 -355 -24 -460 -12
-227 26 -401 138 -506 324 -27 48 -48 89 -47 90 1 2 -6 23 -17 49 -31 71 -66
229 -77 349 -14 143 -7 538 12 750 2 22 7 74 10 115 3 41 8 95 10 120 2 25 7
81 11 125 3 44 8 96 9 115 18 213 25 3616 10 4425 -5 253 -7 863 -5 1355 4
1076 5 4705 1 5050 -1 135 0 272 3 305 3 33 8 89 11 125 7 80 12 133 30 300 7
71 16 143 20 170 3 14 7 54 11 90 3 36 7 76 9 90 5 39 16 150 20 195 17 187
20 256 20 435 0 221 -7 310 -30 420 -3 14 -7 36 -10 49 -3 19 -18 70 -40 141
-33 105 -126 253 -216 341 -118 117 -323 212 -524 243 -46 7 -108 16 -156 22
-41 5 -477 12 -482 8z m3359 -19808 c39 -3 86 -8 105 -10 111 -15 137 -18 164
-22 17 -2 41 -6 55 -9 44 -9 74 -15 110 -21 53 -9 260 -63 300 -78 19 -8 40
-14 45 -15 13 -1 75 -20 100 -31 11 -4 85 -34 165 -66 80 -32 164 -68 188 -81
23 -13 42 -21 42 -18 0 4 12 -2 28 -12 15 -10 41 -25 57 -33 17 -8 63 -34 103
-57 40 -24 75 -43 77 -43 6 0 278 -182 285 -190 3 -3 34 -28 70 -55 66 -50
156 -124 195 -160 145 -136 257 -251 346 -356 101 -118 102 -120 173 -220 37
-52 72 -101 79 -109 72 -91 334 -584 336 -635 0 -3 7 -18 15 -33 23 -46 119
-338 139 -427 3 -11 13 -51 22 -90 9 -38 18 -79 20 -90 1 -11 7 -47 14 -80 6
-33 13 -82 16 -110 4 -27 8 -61 10 -75 25 -140 25 -648 1 -776 -2 -11 -7 -41
-10 -69 -9 -69 -21 -137 -31 -185 -3 -14 -8 -36 -10 -50 -2 -14 -12 -54 -20
-90 -9 -36 -18 -74 -21 -85 -6 -32 -54 -186 -76 -245 -11 -30 -21 -59 -22 -65
-2 -5 -8 -21 -13 -35 -6 -14 -25 -61 -43 -105 -76 -190 -226 -463 -366 -665
-320 -462 -778 -872 -1259 -1129 -33 -18 -67 -36 -75 -41 -46 -29 -387 -175
-430 -185 -8 -2 -64 -19 -125 -39 -60 -20 -119 -38 -130 -40 -11 -2 -51 -12
-90 -21 -108 -26 -144 -33 -195 -40 -19 -3 -46 -7 -60 -10 -14 -3 -45 -8 -70
-11 -25 -3 -58 -7 -75 -10 -208 -27 -627 -22 -832 11 -18 3 -50 7 -70 11 -56
8 -144 23 -173 30 -30 7 -96 21 -128 28 -13 3 -32 8 -42 11 -10 3 -27 8 -37
10 -41 9 -191 55 -226 70 -20 8 -39 15 -42 15 -3 0 -21 7 -41 15 -20 8 -42 15
-50 15 -7 0 -16 5 -19 10 -3 6 -12 10 -20 10 -21 0 -244 104 -360 168 -38 22
-85 48 -104 58 -56 31 -286 186 -289 195 -2 5 -8 9 -13 9 -15 0 -174 132 -294
243 -351 326 -620 702 -816 1138 -53 120 -91 214 -115 289 -26 79 -65 204 -70
223 -7 27 -11 48 -29 122 -23 94 -27 114 -43 210 -14 77 -18 103 -37 255 -6
52 -18 294 -19 375 0 82 12 305 19 355 2 19 7 57 10 85 3 27 8 61 10 75 2 14
6 39 9 55 5 36 12 73 25 140 16 79 20 95 26 115 3 10 8 29 11 42 3 13 6 28 8
33 1 6 8 30 15 55 17 61 61 201 71 225 5 11 20 52 35 90 15 39 35 89 46 112
10 24 19 45 19 48 0 8 110 227 140 280 12 22 47 81 77 130 30 50 59 99 66 110
7 11 14 22 17 25 3 3 28 36 54 74 329 465 806 870 1318 1119 65 31 120 57 122
57 3 0 29 11 58 23 46 21 75 32 183 73 11 4 25 8 30 10 6 1 46 14 89 28 68 23
253 71 305 80 9 2 34 7 56 11 22 4 51 9 65 11 14 3 36 7 50 9 14 3 45 8 70 10
25 3 55 8 67 10 13 2 67 7 120 10 54 4 99 8 100 9 5 4 373 -2 439 -8z" />
    <path d="M8115 30930 c-280 -3 -1411 -4 -2512 -2 l-2003 2 46 -72 c25 -40 87
-138 139 -218 52 -80 116 -180 142 -222 26 -43 51 -78 55 -78 5 0 8 -5 8 -10
0 -6 30 -56 66 -113 69 -106 110 -168 209 -322 32 -49 108 -166 168 -260 61
-93 134 -206 162 -250 28 -44 60 -95 70 -112 11 -18 23 -33 27 -33 4 0 8 -4 8
-10 0 -13 71 -124 82 -128 4 -2 8 -7 8 -12 0 -9 292 -474 317 -505 4 -5 17
-27 28 -47 11 -21 23 -38 27 -38 5 0 8 -5 8 -11 0 -5 19 -40 43 -77 24 -37 65
-103 92 -147 27 -44 51 -82 54 -85 3 -3 13 -17 21 -32 8 -16 44 -76 80 -134
36 -59 74 -123 86 -143 11 -20 33 -56 49 -81 16 -25 35 -54 41 -65 97 -175
183 -295 278 -390 50 -50 106 -100 124 -110 17 -11 32 -23 32 -27 0 -4 5 -8
10 -8 6 0 27 -11 48 -23 39 -25 204 -93 243 -101 13 -2 45 -9 72 -15 47 -11
75 -16 152 -26 134 -18 1455 -27 1705 -12 242 15 363 28 470 52 14 3 36 7 50
10 54 10 67 14 124 30 93 27 195 72 271 120 67 41 176 142 199 182 5 10 16 24
24 32 20 21 94 175 119 251 28 84 51 180 68 294 4 21 8 48 11 60 2 11 6 46 10
76 3 30 7 70 9 89 3 18 7 77 11 130 3 53 8 123 11 156 2 33 7 470 9 970 3 501
6 935 7 965 2 135 -27 247 -86 328 -33 44 -87 92 -103 92 -4 0 -15 6 -23 13
-19 16 -137 53 -201 63 -57 9 -512 10 -1165 4z" />
  </g>
</svg>
